<mxfile host="app.diagrams.net" modified="2022-04-05T12:46:29.696Z" agent="5.0 (Windows NT 10.0; Win64; x64) AppleWebKit/537.36 (KHTML, like Gecko) Chrome/100.0.4896.60 Safari/537.36 Edg/100.0.1185.29" etag="k0KvZ2U1cj_bhzRFN8mi" version="17.4.0" type="github">
  <diagram id="C5RBs43oDa-KdzZeNtuy" name="Page-1">
    <mxGraphModel dx="990" dy="539" grid="1" gridSize="10" guides="1" tooltips="1" connect="1" arrows="1" fold="1" page="1" pageScale="1" pageWidth="827" pageHeight="1169" math="0" shadow="0">
      <root>
        <mxCell id="WIyWlLk6GJQsqaUBKTNV-0" />
        <mxCell id="WIyWlLk6GJQsqaUBKTNV-1" parent="WIyWlLk6GJQsqaUBKTNV-0" />
        <mxCell id="HdSQoBtI3Z1_poshM1Dd-0" value="" style="shape=cylinder3;whiteSpace=wrap;html=1;boundedLbl=1;backgroundOutline=1;size=15;" vertex="1" parent="WIyWlLk6GJQsqaUBKTNV-1">
          <mxGeometry x="60" y="190" width="110" height="80" as="geometry" />
        </mxCell>
        <mxCell id="HdSQoBtI3Z1_poshM1Dd-13" style="edgeStyle=orthogonalEdgeStyle;rounded=0;orthogonalLoop=1;jettySize=auto;html=1;entryX=0;entryY=0.5;entryDx=0;entryDy=0;" edge="1" parent="WIyWlLk6GJQsqaUBKTNV-1" source="HdSQoBtI3Z1_poshM1Dd-1" target="HdSQoBtI3Z1_poshM1Dd-12">
          <mxGeometry relative="1" as="geometry">
            <Array as="points">
              <mxPoint x="240" y="400" />
              <mxPoint x="240" y="495" />
            </Array>
          </mxGeometry>
        </mxCell>
        <mxCell id="HdSQoBtI3Z1_poshM1Dd-1" value="a" style="rounded=1;whiteSpace=wrap;html=1;" vertex="1" parent="WIyWlLk6GJQsqaUBKTNV-1">
          <mxGeometry x="90" y="370" width="120" height="60" as="geometry" />
        </mxCell>
        <mxCell id="HdSQoBtI3Z1_poshM1Dd-15" style="edgeStyle=orthogonalEdgeStyle;rounded=0;orthogonalLoop=1;jettySize=auto;html=1;entryX=0.5;entryY=0;entryDx=0;entryDy=0;" edge="1" parent="WIyWlLk6GJQsqaUBKTNV-1" source="HdSQoBtI3Z1_poshM1Dd-2" target="HdSQoBtI3Z1_poshM1Dd-12">
          <mxGeometry relative="1" as="geometry" />
        </mxCell>
        <mxCell id="HdSQoBtI3Z1_poshM1Dd-2" value="b" style="rounded=1;whiteSpace=wrap;html=1;" vertex="1" parent="WIyWlLk6GJQsqaUBKTNV-1">
          <mxGeometry x="275" y="370" width="120" height="60" as="geometry" />
        </mxCell>
        <mxCell id="HdSQoBtI3Z1_poshM1Dd-14" style="edgeStyle=orthogonalEdgeStyle;rounded=0;orthogonalLoop=1;jettySize=auto;html=1;entryX=1;entryY=0.5;entryDx=0;entryDy=0;" edge="1" parent="WIyWlLk6GJQsqaUBKTNV-1" source="HdSQoBtI3Z1_poshM1Dd-3" target="HdSQoBtI3Z1_poshM1Dd-12">
          <mxGeometry relative="1" as="geometry">
            <Array as="points">
              <mxPoint x="440" y="400" />
              <mxPoint x="440" y="495" />
            </Array>
          </mxGeometry>
        </mxCell>
        <mxCell id="HdSQoBtI3Z1_poshM1Dd-3" value="c" style="rounded=1;whiteSpace=wrap;html=1;" vertex="1" parent="WIyWlLk6GJQsqaUBKTNV-1">
          <mxGeometry x="490" y="370" width="120" height="60" as="geometry" />
        </mxCell>
        <mxCell id="HdSQoBtI3Z1_poshM1Dd-4" value="" style="ellipse;whiteSpace=wrap;html=1;" vertex="1" parent="WIyWlLk6GJQsqaUBKTNV-1">
          <mxGeometry x="275" y="560" width="120" height="80" as="geometry" />
        </mxCell>
        <mxCell id="HdSQoBtI3Z1_poshM1Dd-17" style="edgeStyle=orthogonalEdgeStyle;rounded=0;orthogonalLoop=1;jettySize=auto;html=1;entryX=0.5;entryY=0;entryDx=0;entryDy=0;" edge="1" parent="WIyWlLk6GJQsqaUBKTNV-1" source="HdSQoBtI3Z1_poshM1Dd-5" target="HdSQoBtI3Z1_poshM1Dd-7">
          <mxGeometry relative="1" as="geometry" />
        </mxCell>
        <mxCell id="HdSQoBtI3Z1_poshM1Dd-5" value="" style="ellipse;whiteSpace=wrap;html=1;" vertex="1" parent="WIyWlLk6GJQsqaUBKTNV-1">
          <mxGeometry x="275" y="60" width="120" height="80" as="geometry" />
        </mxCell>
        <mxCell id="HdSQoBtI3Z1_poshM1Dd-8" style="edgeStyle=orthogonalEdgeStyle;rounded=0;orthogonalLoop=1;jettySize=auto;html=1;" edge="1" parent="WIyWlLk6GJQsqaUBKTNV-1" source="HdSQoBtI3Z1_poshM1Dd-7" target="HdSQoBtI3Z1_poshM1Dd-0">
          <mxGeometry relative="1" as="geometry" />
        </mxCell>
        <mxCell id="HdSQoBtI3Z1_poshM1Dd-9" style="edgeStyle=orthogonalEdgeStyle;rounded=0;orthogonalLoop=1;jettySize=auto;html=1;entryX=0.5;entryY=0;entryDx=0;entryDy=0;startArrow=classic;startFill=1;" edge="1" parent="WIyWlLk6GJQsqaUBKTNV-1" source="HdSQoBtI3Z1_poshM1Dd-7" target="HdSQoBtI3Z1_poshM1Dd-1">
          <mxGeometry relative="1" as="geometry">
            <Array as="points">
              <mxPoint x="335" y="320" />
              <mxPoint x="150" y="320" />
            </Array>
          </mxGeometry>
        </mxCell>
        <mxCell id="HdSQoBtI3Z1_poshM1Dd-10" style="edgeStyle=orthogonalEdgeStyle;rounded=0;orthogonalLoop=1;jettySize=auto;html=1;entryX=0.5;entryY=0;entryDx=0;entryDy=0;" edge="1" parent="WIyWlLk6GJQsqaUBKTNV-1" source="HdSQoBtI3Z1_poshM1Dd-7" target="HdSQoBtI3Z1_poshM1Dd-2">
          <mxGeometry relative="1" as="geometry" />
        </mxCell>
        <mxCell id="HdSQoBtI3Z1_poshM1Dd-11" style="edgeStyle=orthogonalEdgeStyle;rounded=0;orthogonalLoop=1;jettySize=auto;html=1;" edge="1" parent="WIyWlLk6GJQsqaUBKTNV-1" source="HdSQoBtI3Z1_poshM1Dd-7" target="HdSQoBtI3Z1_poshM1Dd-3">
          <mxGeometry relative="1" as="geometry">
            <Array as="points">
              <mxPoint x="335" y="320" />
              <mxPoint x="550" y="320" />
            </Array>
          </mxGeometry>
        </mxCell>
        <mxCell id="HdSQoBtI3Z1_poshM1Dd-7" value="" style="rounded=0;whiteSpace=wrap;html=1;" vertex="1" parent="WIyWlLk6GJQsqaUBKTNV-1">
          <mxGeometry x="275" y="200" width="120" height="60" as="geometry" />
        </mxCell>
        <mxCell id="HdSQoBtI3Z1_poshM1Dd-16" style="edgeStyle=orthogonalEdgeStyle;rounded=0;orthogonalLoop=1;jettySize=auto;html=1;" edge="1" parent="WIyWlLk6GJQsqaUBKTNV-1" source="HdSQoBtI3Z1_poshM1Dd-12" target="HdSQoBtI3Z1_poshM1Dd-4">
          <mxGeometry relative="1" as="geometry" />
        </mxCell>
        <mxCell id="HdSQoBtI3Z1_poshM1Dd-12" value="" style="ellipse;whiteSpace=wrap;html=1;aspect=fixed;" vertex="1" parent="WIyWlLk6GJQsqaUBKTNV-1">
          <mxGeometry x="310" y="470" width="50" height="50" as="geometry" />
        </mxCell>
        <mxCell id="HdSQoBtI3Z1_poshM1Dd-19" value="" style="shape=document;whiteSpace=wrap;html=1;boundedLbl=1;" vertex="1" parent="WIyWlLk6GJQsqaUBKTNV-1">
          <mxGeometry x="430" y="200" width="120" height="80" as="geometry" />
        </mxCell>
        <mxCell id="HdSQoBtI3Z1_poshM1Dd-20" value="d" style="rounded=1;whiteSpace=wrap;html=1;" vertex="1" parent="WIyWlLk6GJQsqaUBKTNV-1">
          <mxGeometry x="669" y="370" width="120" height="60" as="geometry" />
        </mxCell>
        <mxCell id="HdSQoBtI3Z1_poshM1Dd-23" value="" style="endArrow=none;dashed=1;html=1;dashPattern=1 3;strokeWidth=2;rounded=0;" edge="1" parent="WIyWlLk6GJQsqaUBKTNV-1">
          <mxGeometry width="50" height="50" relative="1" as="geometry">
            <mxPoint x="640" y="520" as="sourcePoint" />
            <mxPoint x="640" y="130" as="targetPoint" />
          </mxGeometry>
        </mxCell>
      </root>
    </mxGraphModel>
  </diagram>
</mxfile>
